<svg xmlns="http://www.w3.org/2000/svg" viewBox="0 0 344 66.666664" height="66.667" width="344"><path d="M80.11 65.036c-10.305-5.199-13-19.941-6.123-33.51 10.621-20.961 43.149-20.795 40.332.206-1.316 9.81-12.703 16.973-26.986 16.973-3.825 0-4.163 1.58-1.01 4.733 1.81 1.811 3.918 2.124 10.666 1.582 8.085-.649 8.41-.556 8.41 2.396 0 1.689.348 3.978.773 5.087 1.766 4.602-18.128 6.535-26.062 2.533zm18.37-29.21c1.996-1.267 2.936-2.98 2.667-4.859-.833-5.822-10.475-4.416-14.452 2.107-1.44 2.363-2.622 4.8-2.625 5.414-.007 1.627 10.798-.37 14.41-2.662zM2.048 63.038c9.477-40.58 14.446-60.546 15.287-61.424.575-.6 3.374-.9 6.221-.667l5.176.424 9.435 18.894 9.436 18.894 4.564-18.894 4.565-18.894 7-.403c4.117-.237 7 .155 7 .952 0 .746-3.3 15.145-7.334 31.999-4.033 16.854-7.333 30.975-7.333 31.381 0 .406-2.62.738-5.821.738h-5.822l-3.015-8.333c-3.537-9.774-14.199-33-15.148-33-.36 0-2.877 9.3-5.59 20.666l-4.936 20.667H8.54c-6.778 0-7.152-.173-6.492-3zm120.826-8.406c-.878-6.273-1.96-17.373-2.404-24.666l-.808-13.261h13.736l.094 13c.149 20.663 1.044 20.897 9.915 2.597l7.629-15.736 8.311-.063c6.274-.048 3.033-.404 3.253 19.202.073 6.416.651 11.666 1.287 11.666 1.155 0 7.021-12.416 11.496-24.333l2.378-6.333h7.152c3.934 0 7.152.349 7.152.776 0 1.815-8.393 19.683-13.5 28.738-9.138 16.204-12.516 19.819-18.522 19.819-6.024 0-6.081-.123-7.365-15.79l-.912-11.121-3.999 7.122c-10.495 18.692-11.472 19.789-17.639 19.789h-5.659z" fill="#ed202f" fill-opacity=".941"/><path d="M253.273 64.763c-2.895-1.765-4.782-4.34-5.889-8.033-1.44-4.807-1.177-7.395 2.281-22.397l3.91-16.962 6.98-.403c3.838-.221 6.979.036 6.979.573 0 .537-1.544 7.431-3.43 15.32-4.232 17.699-4.015 21.678 1.214 22.277 4.633.53 8.883-2.985 8.883-7.347 0-1.742 1.574-9.45 3.497-17.127l3.498-13.96h6.502c4.728 0 6.503.517 6.503 1.894 0 1.041-1.567 8.391-3.482 16.333-2.716 11.265-3.298 16.241-2.644 22.631l.837 8.192-5.689.56c-3.91.384-6.136-.038-7.12-1.349-1.232-1.644-2.004-1.61-5.6.25-5.575 2.883-12.039 2.713-17.23-.452zm-67.072.204c0-2.122 14.468-61.842 15.146-62.52.382-.382 5.823-1.014 12.092-1.405 13.527-.844 21.371 1.5 26.864 8.028 3.11 3.696 3.448 5.06 2.953 11.906-.616 8.514-4.457 14.053-11.879 17.127-4.505 1.866-4.436 1.588-1.715 6.85 1.17 2.262 3.576 7.961 5.346 12.664l3.218 8.549-8.228-.397-8.228-.398-2.96-8.794c-4.183-12.42-5.533-14.54-9.26-14.54-3.438 0-4.038 1.35-7.517 16.894l-1.59 7.107h-7.121c-3.917 0-7.121-.482-7.121-1.071zm33.074-34.41c5.583-1.117 9.592-5.188 9.592-9.741 0-4.883-2.61-6.949-9.8-7.76l-5.8-.653-2.2 8.758c-1.21 4.817-2.2 9.085-2.2 9.484 0 .968 5.356.922 10.408-.089zm76.263 34.55c.011-2.732 10.717-44.99 11.63-45.902.568-.568 5.233-1.726 10.368-2.574 12.379-2.044 19.71-.223 23.387 5.808 3.451 5.66 3.292 10.376-.96 28.433l-3.572 15.166h-7.185c-6.227 0-7.09-.311-6.47-2.333 2.073-6.763 6.131-26.258 6.131-29.452 0-2.025-.72-4.402-1.6-5.282-2.093-2.093-7.295-2.053-8.607.067-.567.917-2.899 9.467-5.182 19l-4.15 17.333-6.897.403c-3.794.222-6.895-.078-6.893-.666z" fill="#666"/></svg>